<?xml version="1.0" encoding="utf-8"?>
<!-- Generator: Adobe Illustrator 24.0.0, SVG Export Plug-In . SVG Version: 6.00 Build 0)  -->
<svg version="1.1" id="Capa_1" xmlns="http://www.w3.org/2000/svg" xmlns:xlink="http://www.w3.org/1999/xlink" x="0px" y="0px"
	 viewBox="0 0 163.08 20.21" style="enable-background:new 0 0 163.08 20.21;" xml:space="preserve">
<style type="text/css">
	.st0{fill:#FFFFFF;}
</style>
<g>
	<path class="st0" d="M111.61,9.15c0,2.61,0.02,5.22-0.01,7.84c-0.01,0.78,0.33,1.19,1.03,1.34c0.81,0.17,1.64,0.18,2.44,0
		c0.72-0.16,1.11-0.62,1.1-1.42c-0.03-2.17,0-4.34-0.01-6.51c-0.01-1.14-0.42-1.59-1.58-1.64c-0.46-0.02-0.68-0.12-0.68-0.64
		c0.01-0.48,0.16-0.65,0.65-0.66c1.48-0.03,2.96-0.09,4.43-0.19c0.68-0.04,0.85,0.2,0.84,0.85c-0.03,2.86-0.01,5.73-0.01,8.59
		c0,1.48,0.13,1.62,1.56,1.71c0.34,0.02,0.63,0.02,0.62,0.48c-0.01,0.37,0,0.7-0.51,0.7c-0.34,0-0.69,0.08-1.03,0.08
		c-4.6,0.01-9.2,0.01-13.8,0c-0.39,0-0.91,0.22-0.94-0.55c-0.02-0.73,0.45-0.6,0.87-0.63c0.86-0.06,1.28-0.47,1.28-1.39
		c-0.02-4.12,0-8.25-0.01-12.37c0-1.18-0.43-1.6-1.67-1.66c-0.36-0.02-0.68,0.02-0.69-0.51c-0.01-0.51,0.2-0.64,0.67-0.64
		c1.04,0.01,2.08-0.06,3.08-0.36c0.39-0.12,0.76-0.29,1.13-0.45c0.39-0.17,0.7-0.79,1.12-0.51c0.33,0.22,0.11,0.82,0.11,1.25
		C111.62,4.3,111.61,6.72,111.61,9.15z"/>
	<path class="st0" d="M9.48,9.08c0-1.98,0-3.96,0-5.95c0-1.17-0.22-1.39-1.36-1.39c-0.41,0-0.82-0.02-1.23,0.01
		C6.42,1.78,6.22,1.63,6.23,1.12C6.24,0.63,6.4,0.46,6.89,0.47c2.99,0.02,5.98,0.01,8.98,0c0.46,0,0.69,0.12,0.68,0.63
		c-0.01,0.5-0.29,0.53-0.68,0.55C14.06,1.75,14,1.82,14,3.67c0,3.3-0.11,6.61,0.03,9.91c0.16,3.87-2.24,5.73-5.04,6.21
		c-2.6,0.45-5.16,0.38-7.33-1.46c-1.14-0.97-1.77-2.18-1.63-3.73c0.2-2.27,2.8-3.67,4.8-2.57c1,0.55,1.52,1.79,1.2,2.82
		c-0.33,1.06-1.28,1.59-2.56,1.39c-0.42-0.07-0.89-0.16-1.09,0.28c-0.23,0.51,0.03,1.03,0.45,1.33c1.4,1.01,2.95,1.25,4.56,0.64
		c1.52-0.58,2.07-1.86,2.09-3.38C9.51,13.1,9.48,11.09,9.48,9.08z"/>
	<path class="st0" d="M130.46,15.68c1.03-1.91,2.02-3.65,2.92-5.45c0.46-0.91,0.12-1.44-0.94-1.69c-0.48-0.11-0.94-0.17-0.81-0.86
		c0.12-0.68,0.63-0.39,0.97-0.4c1.32-0.03,2.65-0.02,3.97-0.01c0.31,0,0.74-0.15,0.76,0.42c0.02,0.41-0.01,0.74-0.52,0.83
		c-0.79,0.14-1.21,0.69-1.58,1.36c-1.63,3.02-3.28,6.02-4.93,9.03c-0.64,1.16-1.19,1.17-1.85,0.07c-1.76-2.94-3.52-5.88-5.29-8.82
		c-0.48-0.8-0.88-1.7-2.02-1.78c-0.44-0.03-0.23-0.43-0.25-0.68c-0.03-0.41,0.26-0.43,0.56-0.43c1.17,0,2.33,0,3.5,0
		c1.07,0,2.14,0.01,3.21,0c0.41-0.01,0.65,0.08,0.65,0.56c0,0.47-0.21,0.55-0.63,0.59c-1.54,0.12-1.74,0.48-0.97,1.81
		C128.24,11.99,129.3,13.74,130.46,15.68z"/>
	<path class="st0" d="M155.68,10.64c0.52-0.97,1.07-1.87,1.89-2.57c1.27-1.08,3.2-1.28,4.49-0.46c0.98,0.63,1.3,1.84,0.74,2.8
		c-0.47,0.8-1.48,1.14-2.29,0.77c-0.77-0.35-1.05-1.14-0.77-2.09c0.08-0.27,0.42-0.6,0.03-0.83c-0.31-0.19-0.68-0.07-0.97,0.16
		c-0.84,0.66-1.39,1.52-1.8,2.49c-0.9,2.16-0.81,4.43-0.76,6.7c0.02,0.74,0.6,0.9,1.2,0.92c0.41,0.01,0.81-0.06,1.22-0.09
		c0.37-0.03,0.6,0.07,0.59,0.51c-0.01,0.4-0.06,0.66-0.55,0.66c-2.71-0.01-5.42-0.01-8.13,0c-0.48,0-0.58-0.21-0.58-0.63
		c0-0.41,0.15-0.57,0.56-0.55c0.28,0.02,0.57,0.01,0.85-0.01c0.66-0.05,1.04-0.39,1.04-1.09c0-2.33,0.02-4.66-0.01-6.99
		c-0.02-1.09-0.57-1.6-1.74-1.69c-0.41-0.03-0.72-0.02-0.72-0.59c0-0.56,0.29-0.58,0.72-0.6c1.35-0.04,2.71-0.08,4.05-0.2
		c0.72-0.06,1.03,0.1,0.96,0.89C155.62,8.97,155.68,9.81,155.68,10.64z"/>
	<path class="st0" d="M61.54,1.92c1.34,0.02,2.26,0.88,2.25,2.12c-0.01,1.19-1.02,2.1-2.3,2.08c-1.28-0.02-2.27-0.96-2.27-2.14
		C59.23,2.77,60.21,1.9,61.54,1.92z"/>
	<path class="st0" d="M117.72,5.99c-1.35,0-2.32-0.87-2.32-2.07c0-1.11,1.04-2.1,2.23-2.12c1.31-0.02,2.37,0.95,2.36,2.18
		C119.98,5.13,119.01,5.99,117.72,5.99z"/>
	<path class="st0" d="M64.95,18.41c-1.24-0.01-1.38-0.17-1.38-1.45c0-2.96-0.02-5.92,0.02-8.88c0.01-0.66-0.17-0.87-0.84-0.83
		c-1.44,0.1-2.89,0.14-4.34,0.2c-0.33,0.01-0.7-0.09-0.74,0.46c-0.04,0.53,0.17,0.7,0.68,0.75c0.82,0.08,1.46,0.41,1.46,1.39
		c-0.01,2.33-0.01,4.66,0.01,6.99c0,0.6-0.32,0.93-0.82,1.13c-0.57,0.23-1.17,0.26-1.77,0.17c-1.05-0.17-1.38-0.57-1.38-1.64
		c-0.01-1.92,0.02-3.84-0.04-5.76c-0.06-1.99-1.37-3.53-3.26-3.84c-1.43-0.24-2.82,0-4.1,0.74c-0.91,0.53-1.64,1.27-2.43,2.08
		c-0.83-2.09-2.38-2.96-4.54-2.88c-2.1,0.08-3.63,1.23-5.04,2.79c-0.11-0.69-0.24-1.23-0.27-1.78c-0.03-0.73-0.4-0.87-1.04-0.82
		c-1.29,0.1-2.58,0.13-3.86,0.2c-0.35,0.02-0.77-0.12-0.81,0.5c-0.03,0.56,0.22,0.65,0.7,0.71c1.25,0.17,1.54,0.54,1.55,1.81
		c0.01,2.01,0.01,4.03,0,6.04c-0.01,1.27-0.76,1.88-2.28,1.89c-1.44,0.01-2.05-0.53-2.06-1.83c-0.01-1.89,0.01-3.78-0.01-5.67
		c-0.02-1.61-0.91-2.95-2.33-3.45C24,6.73,21.9,6.61,19.81,7.15c-1.16,0.3-2.28,0.77-3.07,1.74c-0.78,0.95-0.64,2.15,0.25,2.73
		c0.81,0.53,2.08,0.47,2.74-0.15c0.74-0.69,0.61-1.46,0.14-2.22c-0.19-0.3-0.25-0.55,0.07-0.82c1.15-1,3.76-0.53,4.43,0.82
		c0.35,0.71,0.21,1.48,0.25,2.23c0.03,0.5-0.2,0.63-0.65,0.7c-1.93,0.3-3.84,0.68-5.69,1.31c-0.88,0.3-1.66,0.76-2.27,1.47
		c-1.33,1.53-0.96,3.58,0.82,4.52c1.13,0.6,2.34,0.69,3.58,0.55c1.67-0.19,2.99-1.07,4.27-2.16c1.2,2.04,2.52,2.74,4.53,2.15
		c1.37-0.4,2.72-0.41,4.1-0.42c1.48,0,2.96,0,4.44,0c0.42,0,0.9,0.13,0.9-0.6c0-0.67-0.43-0.56-0.83-0.57
		c-0.88-0.02-1.32-0.44-1.3-1.36c0.03-1.51,0.01-3.02,0.01-4.53c0-0.93,0.38-1.71,1-2.38c0.89-0.96,2.26-1.29,3.37-0.8
		c1.16,0.52,1.51,1.51,1.5,2.7c-0.01,1.61,0,3.21,0,4.82c0,1.26-0.23,1.49-1.46,1.53c-0.38,0.01-0.82-0.14-0.83,0.55
		c0,0.64,0.35,0.61,0.78,0.61c2.21-0.01,4.41,0,6.62,0c0.41,0,0.82,0.07,0.82-0.58c0-0.67-0.41-0.56-0.82-0.58
		c-1.02-0.06-1.33-0.38-1.34-1.4c-0.01-1.38,0-2.77,0-4.15c0-0.95,0.33-1.79,0.86-2.55c0.73-1.03,2.15-1.44,3.38-1.04
		c1.1,0.36,1.63,1.18,1.64,2.57c0.01,1.7,0.01,3.4,0,5.1c0,1.22-0.19,1.43-1.4,1.49c-0.4,0.02-0.74-0.01-0.74,0.57
		c0,0.54,0.26,0.61,0.7,0.61c4.79-0.01,9.58-0.01,14.37,0c0.46,0,0.67-0.11,0.68-0.63C65.68,18.38,65.36,18.42,64.95,18.41z
		 M24.65,13.68c-0.03,0.28-0.01,0.56-0.01,0.85c-0.09,2.19-0.92,3.37-2.62,3.71c-1.16,0.23-1.97-0.06-2.37-0.85
		c-0.39-0.78-0.17-2.06,0.54-2.7c1.16-1.05,2.65-1.21,4.12-1.41C24.62,13.24,24.68,13.41,24.65,13.68z"/>
	<path class="st0" d="M95.9,0.01c-5.27-0.17-10.5,3.65-10.56,9.84c-0.06,5.8,4.21,10.17,10.31,10.19c6.35,0.01,10.5-4.9,10.34-9.99
		C106.02,4.4,101.64,0.19,95.9,0.01z M100.62,14.5c-0.87,3.67-4.36,5.32-7.47,3.57c-1.36-0.76-2.11-1.99-2.42-3.45
		c-0.71-3.27-0.78-6.55,0.24-9.78c0.72-2.27,2.51-3.62,4.65-3.61c2.7,0.01,4.65,1.67,5.15,4.57C101.26,8.7,101.31,11.62,100.62,14.5
		z"/>
	<path class="st0" d="M149.71,16.14c-0.39-0.24-0.65-0.35-0.98,0.14c-0.48,0.7-1.12,1.28-1.84,1.74c-2.47,1.55-5.39,0.38-6.08-2.44
		c-0.1-0.4-0.11-0.81-0.2-1.21c-0.12-0.57,0.12-0.71,0.65-0.7c1.32,0.03,2.64,0.01,3.97,0.01c1.39,0,2.77,0,4.16,0
		c0.26,0,0.62,0.08,0.58-0.38c-0.13-1.55-0.4-3.07-1.49-4.28c-1.92-2.11-4.38-2.45-7.01-1.93c-4.8,0.95-6.89,6.78-3.78,10.51
		c1.5,1.81,3.56,2.4,5.81,2.43c2.54,0.03,4.67-0.87,6.2-2.97C149.88,16.78,150.27,16.48,149.71,16.14z M140.67,11.84
		c0.09-0.72,0.2-1.43,0.47-2.1c0.5-1.23,1.49-1.85,2.73-1.72c1.14,0.11,2.18,1.06,2.33,2.27c0.23,1.92-0.06,2.35-1.83,2.24
		c-0.41-0.03-0.82,0-1.23,0c-0.63,0-1.26-0.02-1.89,0C140.74,12.53,140.61,12.35,140.67,11.84z"/>
	<path class="st0" d="M78.93,16.34c-0.28-0.11-0.52-0.53-0.89-0.09c-0.38,0.46-0.78,0.91-1.22,1.31c-1.35,1.23-2.92,1.62-4.63,0.95
		c-1.71-0.67-2.2-2.19-2.39-3.87c-0.07-0.6,0.09-0.85,0.74-0.82c1.29,0.05,2.58,0.01,3.87,0.01c1.13,0,2.27,0,3.4,0
		c1.42,0,1.47-0.07,1.18-1.51c-0.74-3.65-3.3-5.53-7.19-5.25c-4.91,0.35-7.94,5.35-5.72,9.53c1.25,2.37,3.38,3.34,5.97,3.51
		c2.88,0.19,5.27-0.66,6.95-3.12C79.18,16.75,79.34,16.5,78.93,16.34z M69.82,12.03c0.11-0.87,0.24-1.74,0.68-2.52
		c0.72-1.29,2.16-1.71,3.48-1.02c1.14,0.6,1.83,2.52,1.31,3.61c-0.22,0.47-0.63,0.58-1.09,0.59c-0.63,0.02-1.26,0-1.89,0
		c-0.63,0-1.26-0.03-1.89,0.01C69.9,12.74,69.76,12.5,69.82,12.03z"/>
</g>
</svg>
