<?xml version="1.0" encoding="utf-8"?>
<!-- Generator: Adobe Illustrator 24.0.0, SVG Export Plug-In . SVG Version: 6.00 Build 0)  -->
<svg version="1.1" id="Capa_1" xmlns="http://www.w3.org/2000/svg" xmlns:xlink="http://www.w3.org/1999/xlink" x="0px" y="0px"
	 viewBox="0 0 133.53 70.97" style="enable-background:new 0 0 133.53 70.97;" xml:space="preserve">
<g>
	<path d="M53.22,14.77c0-0.68,0-1.29,0-2c1.66-0.1,3.33-0.22,4.99-0.31c1.06-0.06,2.13-0.03,3.18-0.18c0.71-0.1,0.91,0.16,0.98,0.78
		c0.16,1.25,0.36,2.5,0.56,3.84c1.05-1,2.02-2.02,3.09-2.92c2.95-2.48,7.66-2.78,10.33-0.47c1.08,0.94,1.73,2.36,2.5,3.46
		c1.08-1.01,2.24-2.29,3.59-3.32c2.11-1.6,4.62-2.06,7.18-1.54c3.3,0.68,5.26,3.3,5.31,6.83c0.04,3.44,0.01,6.89,0.01,10.33
		c0,2.3,0.85,3.25,3.18,3.31c0.77,0.02,1.59-0.22,2.33-0.49c0.87-0.32,1.27-1.03,1.27-1.98c-0.01-4.21,0.01-8.43-0.01-12.64
		c-0.01-1.94-1.09-2.74-3.6-2.68c0-0.67,0-1.34,0-2.06c3.19-0.14,6.36-0.27,9.65-0.41c0,3.02,0,6.02,0,9.01
		c-0.01,3.04-0.03,6.08-0.03,9.12c0,1.51,0.58,2.12,2.1,2.19c0.43,0.02,0.86,0,1.35,0c0,0.69,0,1.29,0,1.96c-8.64,0-17.23,0-25.87,0
		c0-0.67,0-1.28,0-1.98c0.54,0,1.04,0.04,1.54-0.01c1.42-0.12,1.94-0.69,1.94-2.09c0-3.41,0-6.82,0-10.22
		c0-2.35-0.95-3.81-2.85-4.42c-1.95-0.63-4.2,0.15-5.41,1.92c-0.99,1.44-1.56,3.02-1.53,4.81C79.03,25.11,79,27.6,79,30.09
		c0,2.01,0.51,2.51,2.54,2.54c0.32,0,0.64,0.03,1.02,0.05c0,0.66,0,1.26,0,1.93c-4.45,0-8.86,0-13.32,0c0-0.65,0-1.26,0-1.96
		c0.58,0,1.15,0.03,1.72-0.01c1.12-0.07,1.91-0.66,1.91-1.73c0.03-3.77,0.04-7.54-0.12-11.31c-0.08-1.85-1.14-3.3-2.99-3.79
		c-1.96-0.52-3.72,0.12-5.03,1.67c-1.13,1.34-1.79,2.88-1.73,4.72c0.08,2.53,0.02,5.06,0.02,7.59c0,2.25,0.58,2.83,2.86,2.87
		c0.18,0,0.36,0,0.61,0c0,0.62,0,1.23,0,1.95c-0.28,0.02-0.59,0.05-0.9,0.05c-3.81,0.01-7.63,0-11.44,0.03
		c-0.6,0.01-1.19,0.24-1.8,0.31c-1.47,0.19-2.97,0.57-4.42,0.47c-1.79-0.12-3.02-1.34-3.82-2.94c-0.19-0.38-0.36-0.77-0.45-0.95
		c-1.69,1.08-3.27,2.35-5.06,3.15c-2.11,0.95-4.44,0.87-6.67,0.26c-1.95-0.54-3.45-1.72-3.86-3.78c-0.51-2.59,0.36-4.77,2.51-6.34
		c2.2-1.61,4.84-2.13,7.42-2.75c1.77-0.43,3.56-0.78,5.44-1.18c-0.18-1.94,0.54-3.98-0.85-5.79c-1.5-1.95-5.32-2.34-7.09-0.62
		c-0.22,0.21-0.25,0.75-0.17,1.1c0.12,0.52,0.51,0.98,0.61,1.5c0.3,1.45-0.18,2.62-1.24,3.24c-1.2,0.7-3.05,0.55-4.13-0.33
		c-0.96-0.79-1.32-2.26-0.83-3.61c0.86-2.37,2.89-3.45,5.06-4.15c3.62-1.17,7.29-0.99,10.87,0.28c2.37,0.84,3.93,3.38,3.95,6.27
		c0.01,3.48,0,6.96,0,10.44c0,2.23,1.23,3.48,3.48,3.32c0.87-0.06,1.75-0.43,2.58-0.78c0.9-0.38,1.22-1.19,1.21-2.15
		c-0.01-4.03,0-8.06-0.01-12.09c0-1.84-0.78-2.62-2.66-2.71C53.89,14.85,53.57,14.8,53.22,14.77z M43.44,22.96
		c-2.33,0.28-4.47,0.67-6.4,1.79c-1.46,0.85-2.18,2.21-2.33,3.86c-0.16,1.72,0.88,3.32,2.33,3.62c2.02,0.42,4.15-0.5,5.32-2.23
		C43.81,27.86,43.37,25.46,43.44,22.96z"/>
	<path d="M11.62,35.22c-3.54-0.53-6.25-2.19-7.98-5.25c-1.82-3.24-0.88-7.39,1.96-9.01c1.89-1.08,4.41-0.81,5.91,0.63
		c1.35,1.3,1.63,3.74,0.66,5.49c-0.64,1.16-1.66,1.58-2.93,1.53c-0.36-0.01-0.73-0.14-1.09-0.11c-0.51,0.04-1.31,0.02-1.44,0.3
		c-0.24,0.47-0.25,1.25-0.02,1.73c0.76,1.6,2.31,2.23,3.91,2.48c3.28,0.52,5.94-0.09,7.35-3.75c0.43-1.13,0.56-2.43,0.57-3.65
		c0.05-7,0.03-14,0.02-21c0-1.98-0.56-2.51-2.56-2.51c-0.95,0-1.89,0-2.9,0c0-0.73,0-1.38,0-2.1c5.57,0,11.16,0,16.83,0
		c0,0.63,0,1.31,0,2.11c-0.67,0-1.35-0.01-2.04,0c-1.45,0.02-2.06,0.61-2.06,2.07c-0.01,7,0.01,14-0.02,21
		c0,0.9-0.12,1.83-0.33,2.71c-0.71,2.97-2.6,4.98-5.28,6.32c-0.31,0.15-0.62,0.29-1.21,0.57c3.2,0.46,5.82,1.56,8.15,3.3
		c3.62,2.71,5.74,6.37,6.52,10.77c0.86,4.92,0.37,9.7-2.32,14.02c-3.24,5.21-7.93,7.94-14.16,8.11C8.32,71.2,1.34,64.53,0.27,56.33
		C-0.43,51,0.12,45.92,3.44,41.44c1.8-2.42,4.02-4.32,6.84-5.47c0.4-0.16,0.8-0.35,1.19-0.53C11.51,35.43,11.52,35.39,11.62,35.22z
		 M8,52.41c0,1.52-0.06,2.58,0.01,3.64c0.18,2.77,0.47,5.51,1.73,8.06c2.38,4.82,8.28,6.21,12.23,2.79c2.4-2.08,3.2-4.96,3.63-7.97
		c0.53-3.71,0.53-7.43,0.21-11.15c-0.21-2.44-0.65-4.83-1.91-7c-1.76-3.03-5.2-4.52-8.62-3.76c-3.17,0.7-4.86,2.92-5.93,5.73
		C8.1,46,7.89,49.41,8,52.41z"/>
	<path d="M33.36,40.12c0-0.69,0-1.26,0-1.91c3.5-0.08,7-0.1,9.73-2.86c0.09,0.08,0.17,0.15,0.26,0.23c0,0.42,0,0.83,0,1.25
		c0,9.52,0,19.05,0,28.57c0,1.73,0.6,2.52,2.35,2.65c1.18,0.09,2.41,0.05,3.55-0.22c1.33-0.31,1.67-0.98,1.67-2.32
		c0-3.88-0.08-7.77,0.03-11.65c0.09-3-1.39-3.59-3.58-3.56c0-0.64,0-1.27,0-1.97c0.29-0.02,0.58-0.03,0.86-0.04
		c2.88-0.13,5.76-0.27,8.75-0.41c0,0.5,0,0.93,0,1.36c0,5.31,0,10.62,0,15.94c0,2.82,0.09,2.92,2.85,3.01
		c0.14,0,0.28,0.01,0.49,0.02c0,0.63,0,1.28,0,1.99c-8.82,0-17.67,0-26.56,0c0-0.69,0-1.33,0-1.97c0.09-0.03,0.15-0.06,0.21-0.06
		c2.74,0.12,3.3-0.41,3.3-3.13c0-7.18-0.07-14.36,0.03-21.54c0.03-2.21-1.21-3.72-3.33-3.37C33.81,40.18,33.63,40.13,33.36,40.12z"
		/>
	<path d="M133.53,24.1c-2.74,0-5.27,0-7.79,0c-2.52,0-5.05,0-7.55,0c-0.49,2.86,0.79,7.31,3.89,8.66c3.29,1.44,5.88,0.28,10.09-4.64
		c1.7,0.92,1.62,0.93,0.55,2.64c-4.43,7.02-17.27,6.35-20.76-1.64c-2.61-5.98-0.59-13.8,6.15-16.45c6.2-2.44,14.38,0.01,15.16,9.01
		C133.32,22.44,133.42,23.19,133.53,24.1z M118.06,22.1c2.61,0,5.13,0.03,7.64-0.02c0.77-0.02,1.56-0.44,1.54-1.27
		c-0.02-1.46-0.06-3-0.5-4.37c-0.51-1.58-1.88-2.52-3.59-2.61c-1.5-0.08-2.78,0.53-3.6,1.86C118.35,17.63,118.01,19.77,118.06,22.1z
		"/>
	<path d="M106.73,59.37c-5.22,0-10.3,0-15.37,0c-0.29,4.25,1.38,8.08,4.97,9.01c2.58,0.67,5.77-0.61,7.67-3.15
		c0.46-0.61,0.91-1.23,1.4-1.88c0.56,0.34,1.08,0.66,1.63,0.99c-1.89,3.28-4.35,5.75-8.22,6.28c-5.3,0.72-10.2-0.31-13.1-5.33
		c-3.81-6.58-0.87-16.45,7.99-18c3.21-0.56,6.43-0.12,9.12,2.09c2.08,1.7,3.11,3.99,3.56,6.56
		C106.56,57.03,106.61,58.16,106.73,59.37z M91.07,57.31c2.85,0,5.42,0.06,7.97-0.05c0.49-0.02,1.29-0.64,1.36-1.08
		c0.18-1.12,0.18-2.32-0.02-3.44c-0.35-1.93-2.04-3.45-3.67-3.56c-2.21-0.15-3.88,0.88-4.57,3.09
		C91.65,53.85,91.44,55.52,91.07,57.31z"/>
	<path d="M121.96,68.23c0,0.67,0,1.28,0,1.97c-4.99,0-10,0-15.07,0c0-0.63,0-1.27,0-1.93c0.8-0.05,1.6-0.04,2.37-0.16
		c1.17-0.18,1.59-0.81,1.58-1.96c-0.02-4.21-0.04-8.42,0.01-12.64c0.02-2.13-0.92-3.2-3.06-3.24c-0.29-0.01-0.57,0-0.92,0
		c0-0.65,0-1.22,0-1.92c3.06-0.17,6.14-0.35,9.29-0.52c0,2.22,0,4.32,0,6.43c0.07,0.02,0.14,0.04,0.21,0.07
		c0.18-0.46,0.36-0.92,0.54-1.38c1-2.54,2.54-4.58,5.35-5.16c1.13-0.23,2.44-0.19,3.55,0.14c2.49,0.74,3.43,4.03,1.89,6.13
		c-0.74,1.01-2.33,1.39-3.45,0.81c-1.32-0.67-1.83-2.27-1.32-3.89c0.15-0.47,0.1-0.99,0.15-1.49c-0.57,0.12-1.26,0.08-1.7,0.39
		c-1.91,1.32-2.63,3.42-3.34,5.49c-1.25,3.64-0.99,7.43-0.96,11.19c0.01,1.12,0.67,1.61,1.89,1.65c0.51,0.01,1.02,0.02,1.53,0.03
		C120.99,68.23,121.45,68.23,121.96,68.23z"/>
	<path d="M58.69,49.87c0-0.68,0-1.25,0-1.92c4.28,0,8.54,0,12.86,0c0,0.56,0,1.13,0,1.89c-0.3,0-0.65-0.01-0.99,0
		c-2.13,0.05-2.69,0.96-1.69,2.84c1.45,2.73,2.94,5.44,4.41,8.16c0.38,0.7,0.75,1.41,1.23,2.31c0.8-1.57,1.53-2.99,2.25-4.42
		c0.8-1.6,1.6-3.2,2.4-4.8c1.2-2.42,0.71-3.46-1.91-4.04c-0.24-0.05-0.49-0.09-0.77-0.13c0-0.61,0-1.18,0-1.92c1.58,0,3.15,0,4.71,0
		c1.53,0,3.06,0,4.65,0c0,0.7,0,1.3,0,2c-2.04,0.13-2.92,1.59-3.72,3.23c-2.68,5.48-5.42,10.92-8.12,16.39
		c-0.27,0.54-0.54,0.84-1.22,0.84c-0.69,0-1-0.26-1.31-0.84c-3.18-5.89-6.39-11.77-9.59-17.65C61.22,50.57,60.38,49.56,58.69,49.87z
		"/>
	<path d="M108.18,6.43c-0.05,2.19-1.66,3.69-3.9,3.64c-2.18-0.05-3.67-1.67-3.63-3.93c0.05-2.13,1.72-3.66,3.96-3.6
		C106.71,2.61,108.23,4.26,108.18,6.43z"/>
	<path d="M53.3,45.46c-2.12-0.03-3.73-1.67-3.69-3.77c0.04-2.18,1.72-3.77,3.96-3.74c2.05,0.03,3.71,1.78,3.64,3.84
		C57.13,44,55.53,45.5,53.3,45.46z"/>
	<path d="M107.57,39.2c1.78,0.35,1.27,2.28,2.23,3.09c0.95-0.84,0.53-2.72,2.34-3.15c0.03,1.58,0.01,2.95,0.02,4.32
		c-0.22-0.02-0.45-0.05-0.67-0.07c0-0.79,0-1.58,0-2.37c-0.08-0.03-0.16-0.05-0.24-0.08c-0.31,0.66-0.59,1.33-0.93,1.97
		c-0.12,0.22-0.39,0.49-0.59,0.49c-0.19,0-0.45-0.3-0.56-0.52c-0.29-0.61-0.52-1.24-0.9-2.16c-0.13,1.13-0.22,1.94-0.31,2.76
		c-0.14-0.02-0.27-0.04-0.41-0.07C107.57,42.05,107.57,40.69,107.57,39.2z"/>
	<path d="M65.42,43.41c-1.46,0.23-1.46-1.35-2.43-1.72c-0.4,0.49,0.55,1.63-0.8,1.78c0-1.44,0-2.78,0-4.22
		c1.31,0.19,0.44,1.24,0.8,1.77c0.93-0.31,0.85-1.95,2.34-1.69c-0.51,0.68-0.97,1.3-1.49,1.98C64.35,41.98,64.84,42.64,65.42,43.41z
		"/>
	<path d="M115.66,42.08c-0.02,0.46-0.04,0.85-0.06,1.24c-0.08,0.07-0.17,0.14-0.25,0.21c-0.2-0.23-0.41-0.45-0.59-0.7
		c-0.05-0.07-0.01-0.21-0.01-0.32c0-1.02,0-2.04,0-3.04c1.66-0.48,2.91-0.17,3.12,0.75C118.13,41.37,117.68,41.76,115.66,42.08z
		 M115.68,41.21c0.1,0.11,0.2,0.22,0.31,0.32c0.37-0.32,0.74-0.63,1.11-0.95c-0.4-0.27-0.81-0.54-1.42-0.95
		C115.68,40.43,115.68,40.82,115.68,41.21z"/>
	<path d="M78.87,42.07c-0.03,1.29-0.03,1.29-0.83,1.31c0-1.31,0-2.62,0-3.93c1.6-0.44,2.82-0.15,3.03,0.73
		C81.35,41.29,80.78,41.79,78.87,42.07z M79.16,39.76c-0.08,0.09-0.16,0.18-0.23,0.26c0,0.42,0,0.84,0,1.25
		c0.09,0.08,0.18,0.16,0.26,0.25c0.36-0.29,0.71-0.58,1.07-0.87C79.89,40.35,79.53,40.06,79.16,39.76z"/>
	<path d="M127.95,39.77c-0.6,0.08-1.2,0.16-1.95,0.26c-0.02,0.25-0.04,0.57-0.06,0.89c0.59,0.11,1.09,0.21,1.59,0.3
		c-0.02,0.14-0.04,0.28-0.05,0.42c-0.46,0.03-0.92,0.06-1.47,0.1c-0.02,0.29-0.04,0.6-0.07,1c0.69,0.04,1.33,0.08,2.28,0.13
		c-1.06,1-2.09,0.32-3.05,0.71c0-1.49,0-2.82,0-4.22c0.89,0,1.8,0,2.71,0C127.91,39.5,127.93,39.63,127.95,39.77z"/>
	<path d="M98.05,42.77c0.78,0,1.56,0,2.34,0c0.04-0.16,0.08-0.31,0.12-0.47c-0.5-0.31-1.05-0.55-1.47-0.94
		c-0.35-0.33-0.53-0.84-0.79-1.27c0.46-0.27,0.89-0.67,1.39-0.78c0.49-0.11,1.05,0.07,1.59,0.12c0.03,0.12,0.05,0.23,0.08,0.35
		c-0.24,0.08-0.48,0.22-0.73,0.24c-0.32,0.02-0.65-0.08-0.97-0.06c-0.15,0.01-0.41,0.17-0.41,0.26c0,0.18,0.1,0.43,0.24,0.53
		c0.35,0.25,0.84,0.35,1.12,0.65c0.31,0.33,0.71,0.89,0.62,1.22c-0.1,0.36-0.7,0.75-1.13,0.8c-0.64,0.09-1.32-0.1-1.98-0.17
		C98.06,43.09,98.05,42.93,98.05,42.77z"/>
	<path d="M73.63,41.82c0,0.28,0,0.56,0,0.89c0.68,0.07,1.34,0.15,2.01,0.22c-0.02,0.14-0.04,0.28-0.06,0.41c-0.87,0-1.75,0-2.7,0
		c0-1.28,0-2.61,0-4c0.88,0,1.77,0,2.65,0c0.03,0.13,0.05,0.25,0.08,0.38c-0.61,0.1-1.21,0.2-1.92,0.32c0,0.24,0,0.57,0,0.95
		c0.52,0.04,1.01,0.07,1.51,0.11c0.02,0.13,0.05,0.25,0.07,0.38C74.76,41.58,74.26,41.69,73.63,41.82z"/>
	<path d="M70.47,43.39c-0.89,0-1.79,0-2.75,0c0-1.34,0-2.66,0-4.03c0.88,0,1.72,0,2.76,0c-0.57,0.96-1.42,0.33-2.04,0.71
		c-0.42,1.6,1.18,0.62,1.6,1.13c-0.27,0.47-0.27,0.47-1.6,0.55c-0.03,0.29-0.06,0.59-0.1,0.91c0.78,0.12,1.49,0.24,2.21,0.35
		C70.53,43.13,70.5,43.26,70.47,43.39z"/>
	<path d="M120.33,39.24c1.13,0.19,0.62,1.02,0.69,1.54c0.08,0.61,0.02,1.24,0.02,1.89c0.68,0.11,1.29,0.21,1.91,0.31
		c-0.03,0.13-0.05,0.26-0.08,0.4c-0.82,0-1.64,0-2.54,0C120.33,42.06,120.33,40.72,120.33,39.24z"/>
	<path d="M90.97,40.04c-0.62-0.12-1.1-0.21-1.58-0.3c0.03-0.13,0.06-0.26,0.08-0.39c1.21,0,2.42,0,3.63,0
		c0.03,0.11,0.06,0.23,0.09,0.34c-0.47,0.11-0.94,0.23-1.55,0.38c0,0.88,0.02,1.85-0.02,2.83c-0.01,0.18-0.21,0.36-0.33,0.54
		c-0.11-0.18-0.32-0.36-0.32-0.55C90.95,41.95,90.97,41.01,90.97,40.04z"/>
	<path d="M104.58,39.44c0,1.3,0,2.6,0,3.91c-0.09,0.06-0.18,0.12-0.27,0.18c-0.18-0.24-0.5-0.47-0.52-0.73
		c-0.07-0.94-0.07-1.9-0.01-2.84c0.02-0.27,0.32-0.52,0.5-0.78C104.37,39.27,104.47,39.36,104.58,39.44z"/>
	<path d="M87.28,41.47c0,0.51,0.03,1.02-0.02,1.53c-0.01,0.15-0.22,0.29-0.34,0.44c-0.12-0.14-0.34-0.28-0.34-0.42
		c-0.03-1.09-0.03-2.19,0-3.28c0-0.15,0.21-0.3,0.33-0.44c0.12,0.14,0.34,0.28,0.35,0.43C87.3,40.3,87.28,40.89,87.28,41.47z"/>
</g>
</svg>
